<svg width="168" height="50" viewBox="0 0 168 50" fill="none" xmlns="http://www.w3.org/2000/svg">
<path d="M11.5614 7.91943C8.17062 10.5746 5.60294 14.222 4.30786 18.4284C21.7844 29.8848 22.7508 44.6392 22.8013 45.8858C23.3183 45.9333 23.8408 45.9584 24.3661 45.9696C26.4618 21.0221 15.3455 10.678 11.5614 7.91943Z" fill="#77287D"/>
<path d="M3.43693 23.2075C3.3976 23.7274 3.37231 24.25 3.37231 24.7783C3.37231 35.5555 12.362 44.4602 22.8013 45.8828C18.5424 32.0032 7.7576 25.4798 3.43693 23.2075Z" fill="#933393"/>
<path d="M37.0612 7.91943C40.452 10.5746 43.0196 14.222 44.3147 18.4284C26.8382 29.8848 25.8718 44.6392 25.8212 45.8858C25.3043 45.9333 24.7818 45.9584 24.2564 45.9696C22.1607 21.0221 33.2799 10.678 37.0612 7.91943Z" fill="#933393"/>
<path d="M45.1857 23.1013C45.225 23.6212 45.2503 24.1438 45.2503 24.6721C45.2503 35.4493 36.2606 44.463 25.8213 45.8856C30.0802 32.0032 40.865 25.3736 45.1857 23.1013Z" fill="#77287D"/>
<path d="M17.385 4.95385C20.8489 5.93767 23.5429 8.76334 24.3099 12.2961V3.36354C21.8265 3.36074 19.4779 3.9365 17.385 4.95385Z" fill="#F99D1C"/>
<path d="M24.3126 3.36084V12.2934C25.0796 8.76064 27.7737 5.93218 31.2375 4.95116C29.1474 3.9366 26.796 3.36084 24.3126 3.36084Z" fill="#F18720"/>
<path d="M70.5226 34.5466H61.4795V12.1509H68.9157C73.9077 12.1509 76.0849 15.1834 76.0849 18.0817C76.0849 20.3149 74.5455 21.9471 72.8683 22.6486C75.0455 23.1154 77.5233 25.0802 77.5233 28.0149C77.5233 32.3135 74.0735 34.5466 70.5226 34.5466ZM68.4128 16.251H66.303V21.1505H68.4802C70.2894 21.1505 71.4272 20.2506 71.4272 18.6183C71.4272 17.3159 70.4889 16.251 68.4128 16.251ZM69.2837 25.2479H66.303V30.4465H69.6854C71.4609 30.4465 72.666 29.3788 72.666 27.8807C72.666 26.3156 71.4609 25.2479 69.2837 25.2479Z" fill="#0A0A0A"/>
<path d="M88.0862 12.1509H83.2627V34.5466H88.0862V12.1509Z" fill="#0A0A0A"/>
<path d="M110.942 34.5466L99.4891 19.9487V34.5466H94.6627V12.1509H99.4891L110.642 26.3491V12.1509H115.465V34.5466H110.942Z" fill="#0A0A0A"/>
<path d="M136.347 34.5466L134.706 29.9462H126.298L124.657 34.5466H119.533L128.276 12.1509H132.731L141.474 34.5466H136.347ZM130.517 18.3165L127.804 25.8153H133.198L130.517 18.3165Z" fill="#0A0A0A"/>
<path d="M158.568 34.5466L152.604 26.1479H150.829V34.5466H146.005V12.1509H153.441C159.706 12.1509 160.911 16.9498 160.911 19.0823C160.911 21.9136 159.304 23.7806 157.327 24.9153L164.628 34.5466H158.568ZM152.972 16.6172H150.829V21.8493H152.905C155.217 21.8493 156.088 20.6167 156.088 19.1829C156.088 17.615 154.984 16.6172 152.972 16.6172Z" fill="#0A0A0A"/>
</svg>
